<svg xmlns="http://www.w3.org/2000/svg" xmlns:xlink="http://www.w3.org/1999/xlink" contentStyleType="text/css" data-diagram-type="DESCRIPTION" height="993px" preserveAspectRatio="none" style="width:838px;height:993px;background:#FFFFFF;" version="1.1" viewBox="0 0 838 993" width="838px" zoomAndPan="magnify"><title>Hardware Data Logger Deployment Diagram</title><defs/><g><text fill="#000000" font-family="sans-serif" font-size="14" font-weight="bold" lengthAdjust="spacing" textLength="350.8066" x="236.6738" y="22.9951">Hardware Data Logger Deployment Diagram</text><!--cluster HardwareDataLogger--><g id="cluster_HardwareDataLogger"><polygon fill="#ADD8E6" points="265,176.0869,275,166.0869,510,166.0869,510,381.6869,500,391.6869,265,391.6869,265,176.0869" style="stroke:#181818;stroke-width:1;"/><line style="stroke:#181818;stroke-width:1;" x1="500" x2="510" y1="176.0869" y2="166.0869"/><line style="stroke:#181818;stroke-width:1;" x1="265" x2="500" y1="176.0869" y2="176.0869"/><line style="stroke:#181818;stroke-width:1;" x1="500" x2="500" y1="176.0869" y2="391.6869"/><text fill="#000000" font-family="sans-serif" font-size="14" font-weight="bold" lengthAdjust="spacing" textLength="169.0596" x="298.9702" y="192.082">HardwareDataLogger</text></g><!--cluster Host Machine (Raspberry Pi or User's PC)--><g id="cluster_Host Machine (Raspberry Pi or User's PC)"><polygon fill="#FFFFE0" points="16,482.6869,26,472.6869,631,472.6869,631,966.3469,621,976.3469,16,976.3469,16,482.6869" style="stroke:#181818;stroke-width:1;"/><line style="stroke:#181818;stroke-width:1;" x1="621" x2="631" y1="482.6869" y2="472.6869"/><line style="stroke:#181818;stroke-width:1;" x1="16" x2="621" y1="482.6869" y2="482.6869"/><line style="stroke:#181818;stroke-width:1;" x1="621" x2="621" y1="482.6869" y2="976.3469"/><text fill="#000000" font-family="sans-serif" font-size="14" font-weight="bold" lengthAdjust="spacing" textLength="326.1768" x="156.4116" y="498.682">Host Machine (Raspberry Pi or User's PC)</text></g><!--cluster grafana--><g id="cluster_grafana"><rect fill="#F1F1F1" height="163.33" rx="2.5" ry="2.5" style="stroke:#181818;stroke-width:1;" width="97" x="40" y="571.6869"/><rect fill="#F1F1F1" height="10" style="stroke:#181818;stroke-width:1;" width="15" x="117" y="576.6869"/><rect fill="#F1F1F1" height="2" style="stroke:#181818;stroke-width:1;" width="4" x="115" y="578.6869"/><rect fill="#F1F1F1" height="2" style="stroke:#181818;stroke-width:1;" width="4" x="115" y="582.6869"/><text fill="#000000" font-family="sans-serif" font-size="14" font-style="italic" lengthAdjust="spacing" textLength="64.7568" x="56.1216" y="597.682">&#171;docker&#187;</text><text fill="#000000" font-family="sans-serif" font-size="14" font-weight="bold" lengthAdjust="spacing" textLength="62.7949" x="57.1025" y="613.9789">Grafana</text></g><!--cluster influx_db--><g id="cluster_influx_db"><path d="M119,825.3469 C119,815.3469 158,815.3469 158,815.3469 C158,815.3469 197,815.3469 197,825.3469 L197,950.3469 C197,960.3469 158,960.3469 158,960.3469 C158,960.3469 119,960.3469 119,950.3469 L119,825.3469 " fill="#F1F1F1" style="stroke:#181818;stroke-width:1;"/><path d="M119,825.3469 C119,835.3469 158,835.3469 158,835.3469 C158,835.3469 197,835.3469 197,825.3469 " fill="none" style="stroke:#181818;stroke-width:1;"/><text fill="#000000" font-family="sans-serif" font-size="14" font-style="italic" lengthAdjust="spacing" textLength="64.7568" x="125.6216" y="850.342">&#171;docker&#187;</text><text fill="#000000" font-family="sans-serif" font-size="14" font-weight="bold" lengthAdjust="spacing" textLength="67.3545" x="124.3228" y="866.6389">InfluxDB</text></g><!--cluster Paho-MQTT--><g id="cluster_Paho-MQTT"><rect fill="#F1F1F1" height="155.33" rx="2.5" ry="2.5" style="stroke:#181818;stroke-width:1;" width="100" x="334" y="693.5169"/><rect fill="#F1F1F1" height="10" style="stroke:#181818;stroke-width:1;" width="15" x="414" y="698.5169"/><rect fill="#F1F1F1" height="2" style="stroke:#181818;stroke-width:1;" width="4" x="412" y="700.5169"/><rect fill="#F1F1F1" height="2" style="stroke:#181818;stroke-width:1;" width="4" x="412" y="704.5169"/><text fill="#000000" font-family="sans-serif" font-size="14" font-style="italic" lengthAdjust="spacing" textLength="64.7568" x="351.6216" y="719.512">&#171;docker&#187;</text><text fill="#000000" font-family="sans-serif" font-size="14" font-weight="bold" lengthAdjust="spacing" textLength="90.0361" x="338.9819" y="735.8089">Paho-MQTT</text></g><!--entity STM32F103RBTx chip--><g id="elem_STM32F103RBTx chip"><rect fill="#F1F1F1" height="46.2969" rx="2.5" ry="2.5" style="stroke:#181818;stroke-width:0.5;" width="192.0723" x="290.96" y="206.0869"/><rect fill="#F1F1F1" height="10" style="stroke:#181818;stroke-width:0.5;" width="15" x="463.0323" y="211.0869"/><rect fill="#F1F1F1" height="2" style="stroke:#181818;stroke-width:0.5;" width="4" x="461.0323" y="213.0869"/><rect fill="#F1F1F1" height="2" style="stroke:#181818;stroke-width:0.5;" width="4" x="461.0323" y="217.0869"/><text fill="#000000" font-family="sans-serif" font-size="14" lengthAdjust="spacing" textLength="152.0723" x="305.96" y="239.082">STM32F103RBTx chip</text></g><!--entity ESP8266MOD chip--><g id="elem_ESP8266MOD chip"><rect fill="#F1F1F1" height="46.2969" rx="2.5" ry="2.5" style="stroke:#181818;stroke-width:0.5;" width="169.4795" x="302.26" y="329.3869"/><rect fill="#F1F1F1" height="10" style="stroke:#181818;stroke-width:0.5;" width="15" x="451.7395" y="334.3869"/><rect fill="#F1F1F1" height="2" style="stroke:#181818;stroke-width:0.5;" width="4" x="449.7395" y="336.3869"/><rect fill="#F1F1F1" height="2" style="stroke:#181818;stroke-width:0.5;" width="4" x="449.7395" y="340.3869"/><text fill="#000000" font-family="sans-serif" font-size="14" lengthAdjust="spacing" textLength="129.4795" x="317.26" y="362.382">ESP8266MOD chip</text></g><text fill="#000000" font-family="sans-serif" font-size="14" lengthAdjust="spacing" textLength="68.332" x="89.834" y="451.3851">Port 3000</text><rect fill="#F1F1F1" height="12" style="stroke:#181818;stroke-width:1.5;" width="12" x="118" y="466.6869"/><text fill="#000000" font-family="sans-serif" font-size="14" lengthAdjust="spacing" textLength="68.332" x="352.834" y="451.3851">Port 1883</text><rect fill="#F1F1F1" height="12" style="stroke:#181818;stroke-width:1.5;" width="12" x="381" y="466.6869"/><text fill="#000000" font-family="sans-serif" font-size="14" lengthAdjust="spacing" textLength="68.332" x="84.834" y="550.3851">Port 3000</text><rect fill="#F1F1F1" height="12" style="stroke:#181818;stroke-width:1.5;" width="12" x="113" y="565.6869"/><text fill="#000000" font-family="sans-serif" font-size="14" lengthAdjust="spacing" textLength="68.332" x="144.834" y="794.0451">Port 8086</text><rect fill="#F1F1F1" height="12" style="stroke:#181818;stroke-width:1.5;" width="12" x="173" y="809.3469"/><!--entity telegraf--><g id="elem_telegraf"><rect fill="#F1F1F1" height="62.5938" rx="2.5" ry="2.5" style="stroke:#181818;stroke-width:0.5;" width="106.7568" x="201.62" y="662.2169"/><rect fill="#F1F1F1" height="10" style="stroke:#181818;stroke-width:0.5;" width="15" x="288.3768" y="667.2169"/><rect fill="#F1F1F1" height="2" style="stroke:#181818;stroke-width:0.5;" width="4" x="286.3768" y="669.2169"/><rect fill="#F1F1F1" height="2" style="stroke:#181818;stroke-width:0.5;" width="4" x="286.3768" y="673.2169"/><text fill="#000000" font-family="sans-serif" font-size="14" font-style="italic" lengthAdjust="spacing" textLength="64.7568" x="217.62" y="695.212">&#171;docker&#187;</text><text fill="#000000" font-family="sans-serif" font-size="14" lengthAdjust="spacing" textLength="57.8184" x="221.0892" y="711.5089">Telegraf</text></g><text fill="#000000" font-family="sans-serif" font-size="14" lengthAdjust="spacing" textLength="68.332" x="378.834" y="672.2151">Port 1883</text><rect fill="#F1F1F1" height="12" style="stroke:#181818;stroke-width:1.5;" width="12" x="407" y="687.5169"/><!--entity hw_mock--><g id="elem_hw_mock"><rect fill="#F1F1F1" height="62.5938" rx="2.5" ry="2.5" style="stroke:#181818;stroke-width:0.5;" width="106.7568" x="479.62" y="662.2169"/><rect fill="#F1F1F1" height="10" style="stroke:#181818;stroke-width:0.5;" width="15" x="566.3768" y="667.2169"/><rect fill="#F1F1F1" height="2" style="stroke:#181818;stroke-width:0.5;" width="4" x="564.3768" y="669.2169"/><rect fill="#F1F1F1" height="2" style="stroke:#181818;stroke-width:0.5;" width="4" x="564.3768" y="673.2169"/><text fill="#000000" font-family="sans-serif" font-size="14" font-style="italic" lengthAdjust="spacing" textLength="64.7568" x="495.62" y="695.212">&#171;docker&#187;</text><text fill="#000000" font-family="sans-serif" font-size="14" lengthAdjust="spacing" textLength="63.3828" x="496.307" y="711.5089">hw-mock</text></g><!--entity User--><g id="elem_User"><ellipse cx="123.9951" cy="51.2969" fill="#F1F1F1" rx="8" ry="8" style="stroke:#181818;stroke-width:0.5;"/><path d="M123.9951,59.2969 L123.9951,86.2969 M110.9951,67.2969 L136.9951,67.2969 M123.9951,86.2969 L110.9951,101.2969 M123.9951,86.2969 L136.9951,101.2969 " fill="none" style="stroke:#181818;stroke-width:0.5;"/><text fill="#000000" font-family="sans-serif" font-size="14" lengthAdjust="spacing" textLength="31.9102" x="108.04" y="115.792">User</text></g><!--entity device_1--><g id="elem_device_1"><polygon fill="#90EE90" points="182.52,67.7969,192.52,57.7969,295.4868,57.7969,295.4868,94.0938,285.4868,104.0938,182.52,104.0938,182.52,67.7969" style="stroke:#181818;stroke-width:0.5;"/><line style="stroke:#181818;stroke-width:0.5;" x1="285.4868" x2="295.4868" y1="67.7969" y2="57.7969"/><line style="stroke:#181818;stroke-width:0.5;" x1="182.52" x2="285.4868" y1="67.7969" y2="67.7969"/><line style="stroke:#181818;stroke-width:0.5;" x1="285.4868" x2="285.4868" y1="67.7969" y2="104.0938"/><text fill="#000000" font-family="sans-serif" font-size="14" lengthAdjust="spacing" textLength="72.9668" x="197.52" y="90.792">Device #1</text></g><!--entity device_2--><g id="elem_device_2"><polygon fill="#90EE90" points="330.52,67.7969,340.52,57.7969,443.4868,57.7969,443.4868,94.0938,433.4868,104.0938,330.52,104.0938,330.52,67.7969" style="stroke:#181818;stroke-width:0.5;"/><line style="stroke:#181818;stroke-width:0.5;" x1="433.4868" x2="443.4868" y1="67.7969" y2="57.7969"/><line style="stroke:#181818;stroke-width:0.5;" x1="330.52" x2="433.4868" y1="67.7969" y2="67.7969"/><line style="stroke:#181818;stroke-width:0.5;" x1="433.4868" x2="433.4868" y1="67.7969" y2="104.0938"/><text fill="#000000" font-family="sans-serif" font-size="14" lengthAdjust="spacing" textLength="72.9668" x="345.52" y="90.792">Device #2</text></g><!--entity device_n--><g id="elem_device_n"><polygon fill="#90EE90" points="478.53,67.7969,488.53,57.7969,591.4626,57.7969,591.4626,94.0938,581.4626,104.0938,478.53,104.0938,478.53,67.7969" style="stroke:#181818;stroke-width:0.5;"/><line style="stroke:#181818;stroke-width:0.5;" x1="581.4626" x2="591.4626" y1="67.7969" y2="57.7969"/><line style="stroke:#181818;stroke-width:0.5;" x1="478.53" x2="581.4626" y1="67.7969" y2="67.7969"/><line style="stroke:#181818;stroke-width:0.5;" x1="581.4626" x2="581.4626" y1="67.7969" y2="104.0938"/><text fill="#000000" font-family="sans-serif" font-size="14" lengthAdjust="spacing" textLength="72.9326" x="493.53" y="90.792">Device #n</text></g><g id="elem_GMN30"><path d="M638.85,650.6869 L638.85,689.5169 L586.66,693.5169 L638.85,697.5169 L638.85,736.3509 A0,0 0 0 0 638.85,736.3509 L831.1542,736.3509 A0,0 0 0 0 831.1542,736.3509 L831.1542,660.6869 L821.1542,650.6869 L638.85,650.6869 A0,0 0 0 0 638.85,650.6869 " fill="#FEFFDD" style="stroke:#181818;stroke-width:0.5;"/><path d="M821.1542,650.6869 L821.1542,660.6869 L831.1542,660.6869 L821.1542,650.6869 " fill="#FEFFDD" style="stroke:#181818;stroke-width:0.5;"/><text fill="#000000" font-family="sans-serif" font-size="13" lengthAdjust="spacing" textLength="171.3042" x="644.85" y="667.7538">Used to provide simulated</text><text fill="#000000" font-family="sans-serif" font-size="13" lengthAdjust="spacing" textLength="164.2075" x="644.85" y="682.8866">data for testing purposes</text><text fill="#000000" font-family="sans-serif" font-size="13" lengthAdjust="spacing" textLength="144.5552" x="644.85" y="698.0194">when real hardware is</text><text fill="#000000" font-family="sans-serif" font-size="13" lengthAdjust="spacing" textLength="155.9111" x="644.85" y="713.1522">unavailable or excluded</text><text fill="#000000" font-family="sans-serif" font-size="13" lengthAdjust="spacing" textLength="70.5415" x="644.85" y="728.285">from tests.</text></g><!--link STM32F103RBTx chip to ESP8266MOD chip--><g id="link_STM32F103RBTx chip_ESP8266MOD chip"><path d="M387,252.7669 C387,274.5569 387,301.3769 387,323.1269 " fill="none" id="STM32F103RBTx chip-to-ESP8266MOD chip" style="stroke:#181818;stroke-width:1;"/><polygon fill="#181818" points="387,329.1269,391,320.1269,387,324.1269,383,320.1269,387,329.1269" style="stroke:#181818;stroke-width:1;"/></g><!--link Port 3000 to grafana_web--><g id="link_Port 3000_grafana_web"><path d="M123.75,478.6269 C122.89,495.3069 120.4089,543.3848 119.5589,559.8748 " fill="none" id="Port 3000-to-grafana_web" style="stroke:#181818;stroke-width:1;"/><polygon fill="#181818" points="119.25,565.8669,123.708,557.0847,119.5074,560.8735,115.7186,556.6729,119.25,565.8669" style="stroke:#181818;stroke-width:1;"/></g><!--reverse link mqtt_io to Port 1883--><g id="link_mqtt_io_Port 1883"><path d="M417.7115,682.2411 C421.7715,673.6411 428.78,661.0369 442,650.6869 C501.91,603.7569 558.82,652.3569 602,589.6869 C617.13,567.7269 618.31,550.7869 602,529.6869 C574.99,494.7369 424.26,477.4969 392.77,474.2569 " fill="none" id="mqtt_io-backto-Port 1883" style="stroke:#181818;stroke-width:1;"/><polygon fill="#181818" points="415.15,687.6669,422.6094,681.2359,417.2846,683.1454,415.375,677.8206,415.15,687.6669" style="stroke:#181818;stroke-width:1;"/></g><!--link grafana to influx_io--><g id="link_grafana_influx_io"><path d="M122.7313,735.1177 C122.77,735.1938 122.8088,735.2699 122.8476,735.3461 C123.0027,735.6509 123.1586,735.9562 123.315,736.2619 C123.6279,736.8734 123.9434,737.4869 124.2613,738.1019 C129.3475,747.9419 135.06,758.1819 141,767.3469 C151.61,783.7269 162.8173,796.6833 170.3673,804.9633 " fill="none" id="grafana-to-influx_io" style="stroke:#181818;stroke-width:1;"/><polygon fill="#181818" points="174.41,809.3969,171.3017,800.0514,171.0411,805.7022,165.3902,805.4416,174.41,809.3969" style="stroke:#181818;stroke-width:1;"/></g><!--link telegraf to influx_io--><g id="link_telegraf_influx_io"><path d="M235.63,725.0669 C217.15,754.1869 194.0916,790.5388 185.2516,804.4888 " fill="none" id="telegraf-to-influx_io" style="stroke:#181818;stroke-width:1;"/><polygon fill="#181818" points="182.04,809.5569,190.2361,804.0958,184.7163,805.3335,183.4787,799.8137,182.04,809.5569" style="stroke:#181818;stroke-width:1;"/></g><!--reverse link telegraf to mqtt_io--><g id="link_telegraf_mqtt_io"><path d="M314.81,693.5169 C352.29,693.5169 392.46,693.5169 407.22,693.5169 " fill="none" id="telegraf-backto-mqtt_io" style="stroke:#181818;stroke-width:1;"/><polygon fill="#181818" points="308.81,693.5169,317.81,697.5169,313.81,693.5169,317.81,689.5169,308.81,693.5169" style="stroke:#181818;stroke-width:1;"/></g><!--reverse link mqtt_io to hw_mock--><g id="link_mqtt_io_hw_mock"><path d="M424.1085,701.6855 C434.4985,707.0155 454.86,706.6969 479.15,706.2069 " fill="none" id="mqtt_io-backto-hw_mock" style="stroke:#181818;stroke-width:1;"/><polygon fill="#181818" points="418.77,698.9469,424.952,706.6138,423.2188,701.2291,428.6035,699.4958,418.77,698.9469" style="stroke:#181818;stroke-width:1;"/></g><!--link User to Port 3000--><g id="link_User_Port 3000"><path d="M124,119.3069 C124,208.8569 124,424.9369 124,460.7669 " fill="none" id="User-to-Port 3000" style="stroke:#181818;stroke-width:1;"/><polygon fill="#181818" points="124,466.7669,128,457.7669,124,461.7669,120,457.7669,124,466.7669" style="stroke:#181818;stroke-width:1;"/><text fill="#000000" font-family="sans-serif" font-size="13" lengthAdjust="spacing" textLength="58.1953" x="125" y="295.4538">Web Site</text></g><!--link ESP8266MOD chip to Port 1883--><g id="link_ESP8266MOD chip_Port 1883"><path d="M387,376.0369 C387,404.4269 387,445.3869 387,460.6969 " fill="none" id="ESP8266MOD chip-to-Port 1883" style="stroke:#181818;stroke-width:1;"/><polygon fill="#181818" points="387,466.6969,391,457.6969,387,461.6969,383,457.6969,387,466.6969" style="stroke:#181818;stroke-width:1;"/><text fill="#000000" font-family="sans-serif" font-size="13" lengthAdjust="spacing" textLength="37.3306" x="388" y="420.7538">MQTT</text></g><!--link device_1 to STM32F103RBTx chip--><g id="link_device_1_STM32F103RBTx chip"><path d="M261.8,104.4769 C289.69,132.0469 332.3529,174.2189 360.1529,201.6989 " fill="none" id="device_1-to-STM32F103RBTx chip" style="stroke:#181818;stroke-width:1;"/><polygon fill="#181818" points="364.42,205.9169,360.8313,196.7451,360.8641,202.4019,355.2073,202.4346,364.42,205.9169" style="stroke:#181818;stroke-width:1;"/></g><!--link device_2 to STM32F103RBTx chip--><g id="link_device_2_STM32F103RBTx chip"><path d="M387,104.4769 C387,132.0469 387,172.4369 387,199.9169 " fill="none" id="device_2-to-STM32F103RBTx chip" style="stroke:#181818;stroke-width:1;"/><polygon fill="#181818" points="387,205.9169,391,196.9169,387,200.9169,383,196.9169,387,205.9169" style="stroke:#181818;stroke-width:1;"/></g><!--link device_n to STM32F103RBTx chip--><g id="link_device_n_STM32F103RBTx chip"><path d="M512.2,104.4769 C484.31,132.0469 441.6471,174.2189 413.8471,201.6989 " fill="none" id="device_n-to-STM32F103RBTx chip" style="stroke:#181818;stroke-width:1;"/><polygon fill="#181818" points="409.58,205.9169,418.7927,202.4346,413.1359,202.4019,413.1687,196.7451,409.58,205.9169" style="stroke:#181818;stroke-width:1;"/></g><!--SRC=[ZLHDZzem4BtdLup2eUqX5HyIGgiL1vhkjjAYqeMgwWavyIInwjYfOmYhrVxtsYR9XW3RmW5bvisyDu_9QAOvmXUYQ4KKGaWqWGUPfgWWn8BBfno5Xf2HL97Sqx80BI6IMiiSA5COQoQ5vv5OImK_IbIU9oH5y4FSinXXCFA1b43TqtO4WmUMPlfU8OeUSDm5Zjy0YYvGd01hP3EEdUOuZ5_35do7yEo1-SGoBwImq_dhpN8olXiD9u-BpG7YZ1L-7_9vlPgDfzFbjx3EEy2bIWYeh4Gmlr3pqWgKfOObCL61yFwHb4M4IZt1Ya5juxiILfy-DB9_8UUogeKNKcacm5-PNvWCXqF_F3oQpIQrniuGzueaH10VRc-fZ7-Zci-jbUan38ExaVqUMIupTU3R2YE7V3doK6DsH4eptLUHyDqXNFHvc8jlQVGFfjbmDlKx1KmwJ9UiCzG6ELf9VJPTnv-lrAr89eFbzytcfB1M1bUaELzjz_oFraRObTvP5UIcOrzILcrj-4HHrzncS_eETxa3Zeasc4Q00pJ_80Gcy-gQopK-dEPSgkxHzcoWBbcBFITqMwmHbDrCa4cBT6LcUQcz4OMIUsPslMJvZXEDj5qIICoEQooDgoaKErN84akNhJ8Ke91mo9g3n8wPdI1xmZY9pB4orNY8-OxMFHDbRf7jLtxqK52muZpFlaHcP3jqr-8R-8aHh9c1dBsVhszkn-yRi3lYUUq5Qq6NhaPxllu79Tv4_GK0]--></g></svg>